<svg width="1200" height="630" viewBox="0 0 1200 630" fill="none" xmlns="http://www.w3.org/2000/svg">
  <rect width="1200" height="630" fill="#0B1325"/>
  <circle cx="153" cy="113" r="214" fill="#5563FF" fill-opacity="0.22"/>
  <circle cx="1046" cy="574" r="269" fill="#18B66B" fill-opacity="0.14"/>
  <rect x="72" y="74" width="1056" height="482" rx="34" fill="white" fill-opacity="0.06" stroke="white" stroke-opacity="0.08"/>
  <rect x="118" y="136" width="370" height="278" rx="24" fill="white" fill-opacity="0.07"/>
  <rect x="526" y="136" width="278" height="126" rx="24" fill="#5563FF" fill-opacity="0.14"/>
  <rect x="826" y="136" width="256" height="126" rx="24" fill="#18B66B" fill-opacity="0.12"/>
  <rect x="526" y="288" width="556" height="126" rx="24" fill="white" fill-opacity="0.07"/>
  <path d="M180 340C224 286 277 260 339 262C401 264 450 300 486 352" stroke="#18B66B" stroke-width="12" stroke-linecap="round"/>
  <path d="M180 372C226 334 280 314 342 314C404 314 453 332 486 356" stroke="#EF4444" stroke-opacity="0.7" stroke-width="12" stroke-linecap="round"/>
  <text x="118" y="486" fill="white" font-family="Segoe UI, Arial, sans-serif" font-size="64" font-weight="700">Finance Dashboard Pro</text>
  <text x="118" y="538" fill="#A7B0BE" font-family="Segoe UI, Arial, sans-serif" font-size="28">Senior frontend portfolio case for FinOps, budget tracking and cash visibility</text>
</svg>
